<svg xmlns="http://www.w3.org/2000/svg" xmlns:xlink="http://www.w3.org/1999/xlink" width="522pt" height="1150pt" viewBox="0.00 0.00 521.61 1150.40">
<g id="graph0" class="graph" transform="scale(1 1) rotate(0) translate(4 1146.4)">
<title>LR0_Automaton</title>
<polygon fill="white" stroke="none" points="-4,4 -4,-1146.4 517.61,-1146.4 517.61,4 -4,4"/>
<!-- 0 -->
<g id="node1" class="node">
<title>0</title>
<text text-anchor="start" x="29.38" y="-461.8" font-family="Times New Roman" font-style="italic" font-size="12.00">0</text>
<text text-anchor="start" x="5" y="-438.4" font-family="Times New Roman" font-size="12.00">E' → .E</text>
<polygon fill="#e0e0e0" stroke="none" points="1,-291.2 1,-430.8 63.76,-430.8 63.76,-291.2 1,-291.2"/>
<polyline fill="none" stroke="black" points="63.76,-430.8 1,-430.8"/>
<text text-anchor="start" x="6" y="-415" font-family="Times New Roman" font-size="12.00">E → .E + T</text>
<text text-anchor="start" x="7.39" y="-400.6" font-family="Times New Roman" font-size="12.00">E → .E - T</text>
<text text-anchor="start" x="16.05" y="-386.2" font-family="Times New Roman" font-size="12.00">E → .T</text>
<text text-anchor="start" x="6.71" y="-371.8" font-family="Times New Roman" font-size="12.00">T → .T * F</text>
<text text-anchor="start" x="8.04" y="-357.4" font-family="Times New Roman" font-size="12.00">T → .T / F</text>
<text text-anchor="start" x="16.38" y="-343" font-family="Times New Roman" font-size="12.00">T → .F</text>
<text text-anchor="start" x="12.38" y="-328.6" font-family="Times New Roman" font-size="12.00">F → .(E)</text>
<text text-anchor="start" x="14.71" y="-314.2" font-family="Times New Roman" font-size="12.00">F → .-F</text>
<text text-anchor="start" x="13.71" y="-299.8" font-family="Times New Roman" font-size="12.00">F → .ID</text>
<polygon fill="none" stroke="black" points="0,-290.2 0,-476.6 64.76,-476.6 64.76,-290.2 0,-290.2"/>
</g>
<!-- 1 -->
<g id="node2" class="node">
<title>1</title>
<text text-anchor="start" x="180.14" y="-885.4" font-family="Times New Roman" font-style="italic" font-size="12.00">1</text>
<text text-anchor="start" x="165.73" y="-862" font-family="Times New Roman" font-size="12.00">E' → E.</text>
<text text-anchor="start" x="156.76" y="-847.6" font-family="Times New Roman" font-size="12.00">E → E. + T</text>
<text text-anchor="start" x="158.14" y="-833.2" font-family="Times New Roman" font-size="12.00">E → E. - T</text>
<polygon fill="none" stroke="black" points="151.76,-824.6 151.76,-900.2 214.52,-900.2 214.52,-824.6 151.76,-824.6"/>
</g>
<!-- 0&#45;&gt;1 -->
<g id="edge1" class="edge">
<title>0-&gt;1</title>
<path fill="none" stroke="black" d="M21.59,-476.32C21.59,-615.62 21.59,-862.4 21.59,-862.4 21.59,-862.4 144.47,-862.4 144.47,-862.4"/>
<polygon fill="black" stroke="black" points="144.47,-864.5 150.47,-862.4 144.47,-860.3 144.47,-864.5"/>
</g>
<!-- 2 -->
<g id="node3" class="node">
<title>2</title>
<text text-anchor="start" x="180.14" y="-337.4" font-family="Times New Roman" font-style="italic" font-size="12.00">2</text>
<text text-anchor="start" x="166.81" y="-314" font-family="Times New Roman" font-size="12.00">E → T.</text>
<text text-anchor="start" x="157.47" y="-299.6" font-family="Times New Roman" font-size="12.00">T → T. * F</text>
<text text-anchor="start" x="158.8" y="-285.2" font-family="Times New Roman" font-size="12.00">T → T. / F</text>
<polygon fill="none" stroke="black" points="152.47,-276.6 152.47,-352.2 213.8,-352.2 213.8,-276.6 152.47,-276.6"/>
</g>
<!-- 0&#45;&gt;2 -->
<g id="edge2" class="edge">
<title>0-&gt;2</title>
<path fill="none" stroke="black" d="M64.72,-321.2C64.72,-321.2 145.13,-321.2 145.13,-321.2"/>
<polygon fill="black" stroke="black" points="145.13,-323.3 151.13,-321.2 145.13,-319.1 145.13,-323.3"/>
</g>
<!-- 4 -->
<g id="node4" class="node">
<title>4</title>
<text text-anchor="start" x="180.14" y="-741.8" font-family="Times New Roman" font-style="italic" font-size="12.00">4</text>
<text text-anchor="start" x="155.76" y="-718.4" font-family="Times New Roman" font-size="12.00">F → (.E)</text>
<polygon fill="#e0e0e0" stroke="none" points="151.76,-571.2 151.76,-710.8 214.52,-710.8 214.52,-571.2 151.76,-571.2"/>
<polyline fill="none" stroke="black" points="214.52,-710.8 151.76,-710.8"/>
<text text-anchor="start" x="156.76" y="-695" font-family="Times New Roman" font-size="12.00">E → .E + T</text>
<text text-anchor="start" x="158.14" y="-680.6" font-family="Times New Roman" font-size="12.00">E → .E - T</text>
<text text-anchor="start" x="166.81" y="-666.2" font-family="Times New Roman" font-size="12.00">E → .T</text>
<text text-anchor="start" x="157.47" y="-651.8" font-family="Times New Roman" font-size="12.00">T → .T * F</text>
<text text-anchor="start" x="158.8" y="-637.4" font-family="Times New Roman" font-size="12.00">T → .T / F</text>
<text text-anchor="start" x="167.13" y="-623" font-family="Times New Roman" font-size="12.00">T → .F</text>
<text text-anchor="start" x="163.14" y="-608.6" font-family="Times New Roman" font-size="12.00">F → .(E)</text>
<text text-anchor="start" x="165.46" y="-594.2" font-family="Times New Roman" font-size="12.00">F → .-F</text>
<text text-anchor="start" x="164.47" y="-579.8" font-family="Times New Roman" font-size="12.00">F → .ID</text>
<polygon fill="none" stroke="black" points="150.76,-570.2 150.76,-756.6 215.52,-756.6 215.52,-570.2 150.76,-570.2"/>
</g>
<!-- 0&#45;&gt;4 -->
<g id="edge4" class="edge">
<title>0-&gt;4</title>
<path fill="none" stroke="black" d="M43.17,-476.31C43.17,-567.97 43.17,-694.47 43.17,-694.47 43.17,-694.47 143.51,-694.47 143.51,-694.47"/>
<polygon fill="black" stroke="black" points="143.51,-696.57 149.51,-694.47 143.51,-692.37 143.51,-696.57"/>
</g>
<!-- 6 -->
<g id="node5" class="node">
<title>6</title>
<text text-anchor="start" x="180.14" y="-487.6" font-family="Times New Roman" font-style="italic" font-size="12.00">6</text>
<text text-anchor="start" x="162.14" y="-464.2" font-family="Times New Roman" font-size="12.00">F → -.F</text>
<polygon fill="#e0e0e0" stroke="none" points="158.14,-403.4 158.14,-456.6 208.13,-456.6 208.13,-403.4 158.14,-403.4"/>
<polyline fill="none" stroke="black" points="208.13,-456.6 158.14,-456.6"/>
<text text-anchor="start" x="163.14" y="-440.8" font-family="Times New Roman" font-size="12.00">F → .(E)</text>
<text text-anchor="start" x="165.46" y="-426.4" font-family="Times New Roman" font-size="12.00">F → .-F</text>
<text text-anchor="start" x="164.47" y="-412" font-family="Times New Roman" font-size="12.00">F → .ID</text>
<polygon fill="none" stroke="black" points="157.14,-402.4 157.14,-502.4 209.13,-502.4 209.13,-402.4 157.14,-402.4"/>
</g>
<!-- 0&#45;&gt;6 -->
<g id="edge6" class="edge">
<title>0-&gt;6</title>
<path fill="none" stroke="black" d="M64.72,-451.87C64.72,-451.87 148.87,-451.87 148.87,-451.87"/>
<polygon fill="black" stroke="black" points="148.87,-453.97 154.87,-451.87 148.87,-449.77 148.87,-453.97"/>
</g>
<!-- 5 -->
<g id="node12" class="node">
<title>5</title>
<text text-anchor="start" x="330.18" y="-230" font-family="Times New Roman" font-style="italic" font-size="12.00">5</text>
<text text-anchor="start" x="314.51" y="-206.6" font-family="Times New Roman" font-size="12.00">F → ID.</text>
<polygon fill="none" stroke="black" points="309.51,-198 309.51,-244.8 356.85,-244.8 356.85,-198 309.51,-198"/>
</g>
<!-- 0&#45;&gt;5 -->
<g id="edge5" class="edge">
<title>0-&gt;5</title>
<path fill="none" stroke="black" d="M43.17,-290.45C43.17,-249.15 43.17,-209.7 43.17,-209.7 43.17,-209.7 298.91,-209.7 298.91,-209.7"/>
<polygon fill="black" stroke="black" points="298.91,-211.8 304.91,-209.7 298.91,-207.6 298.91,-211.8"/>
</g>
<!-- 3 -->
<g id="node13" class="node">
<title>3</title>
<text text-anchor="start" x="330.18" y="-32" font-family="Times New Roman" font-style="italic" font-size="12.00">3</text>
<text text-anchor="start" x="317.18" y="-8.6" font-family="Times New Roman" font-size="12.00">T → F.</text>
<polygon fill="none" stroke="black" points="312.18,0 312.18,-46.8 354.18,-46.8 354.18,0 312.18,0"/>
</g>
<!-- 0&#45;&gt;3 -->
<g id="edge3" class="edge">
<title>0-&gt;3</title>
<path fill="none" stroke="black" d="M21.59,-290.59C21.59,-181.63 21.59,-15.6 21.59,-15.6 21.59,-15.6 298.83,-15.6 298.83,-15.6"/>
<polygon fill="black" stroke="black" points="298.83,-17.7 304.83,-15.6 298.83,-13.5 298.83,-17.7"/>
</g>
<!-- ACCEPT -->
<g id="node6" class="node">
<title>ACCEPT</title>
<text text-anchor="start" x="308.51" y="-1121.8" font-family="Times New Roman" font-weight="bold" font-size="12.00">ACCEPT</text>
</g>
<!-- 1&#45;&gt;ACCEPT -->
<g id="edge7" class="edge">
<title>1-&gt;ACCEPT</title>
<path fill="none" stroke="black" d="M183.14,-899.94C183.14,-972.38 183.14,-1124.4 183.14,-1124.4 183.14,-1124.4 298.84,-1124.4 298.84,-1124.4"/>
<polygon fill="black" stroke="black" points="298.84,-1126.5 304.84,-1124.4 298.84,-1122.3 298.84,-1126.5"/>
</g>
<!-- 7 -->
<g id="node7" class="node">
<title>7</title>
<text text-anchor="start" x="330.18" y="-723.2" font-family="Times New Roman" font-style="italic" font-size="12.00">7</text>
<text text-anchor="start" x="306.52" y="-699.8" font-family="Times New Roman" font-size="12.00">E → E + .T</text>
<polygon fill="#e0e0e0" stroke="none" points="302.52,-595.8 302.52,-692.2 363.85,-692.2 363.85,-595.8 302.52,-595.8"/>
<polyline fill="none" stroke="black" points="363.85,-692.2 302.52,-692.2"/>
<text text-anchor="start" x="307.52" y="-676.4" font-family="Times New Roman" font-size="12.00">T → .T * F</text>
<text text-anchor="start" x="308.85" y="-662" font-family="Times New Roman" font-size="12.00">T → .T / F</text>
<text text-anchor="start" x="317.18" y="-647.6" font-family="Times New Roman" font-size="12.00">T → .F</text>
<text text-anchor="start" x="313.18" y="-633.2" font-family="Times New Roman" font-size="12.00">F → .(E)</text>
<text text-anchor="start" x="315.51" y="-618.8" font-family="Times New Roman" font-size="12.00">F → .-F</text>
<text text-anchor="start" x="314.51" y="-604.4" font-family="Times New Roman" font-size="12.00">F → .ID</text>
<polygon fill="none" stroke="black" points="301.52,-594.8 301.52,-738 364.85,-738 364.85,-594.8 301.52,-594.8"/>
</g>
<!-- 1&#45;&gt;7 -->
<g id="edge8" class="edge">
<title>1-&gt;7</title>
<path fill="none" stroke="black" d="M183.14,-825.06C183.14,-803.26 183.14,-780 183.14,-780 183.14,-780 343.74,-780 343.74,-780 343.74,-780 343.74,-745.21 343.74,-745.21"/>
<polygon fill="black" stroke="black" points="345.84,-745.21 343.74,-739.21 341.64,-745.21 345.84,-745.21"/>
</g>
<!-- 10 -->
<g id="node8" class="node">
<title>10</title>
<text text-anchor="start" x="327.18" y="-916.2" font-family="Times New Roman" font-style="italic" font-size="12.00">10</text>
<text text-anchor="start" x="306.52" y="-892.8" font-family="Times New Roman" font-size="12.00">E → E - .T</text>
<polygon fill="#e0e0e0" stroke="none" points="302.52,-788.8 302.52,-885.2 363.85,-885.2 363.85,-788.8 302.52,-788.8"/>
<polyline fill="none" stroke="black" points="363.85,-885.2 302.52,-885.2"/>
<text text-anchor="start" x="307.52" y="-869.4" font-family="Times New Roman" font-size="12.00">T → .T * F</text>
<text text-anchor="start" x="308.85" y="-855" font-family="Times New Roman" font-size="12.00">T → .T / F</text>
<text text-anchor="start" x="317.18" y="-840.6" font-family="Times New Roman" font-size="12.00">T → .F</text>
<text text-anchor="start" x="313.18" y="-826.2" font-family="Times New Roman" font-size="12.00">F → .(E)</text>
<text text-anchor="start" x="315.51" y="-811.8" font-family="Times New Roman" font-size="12.00">F → .-F</text>
<text text-anchor="start" x="314.51" y="-797.4" font-family="Times New Roman" font-size="12.00">F → .ID</text>
<polygon fill="none" stroke="black" points="301.52,-787.8 301.52,-931 364.85,-931 364.85,-787.8 301.52,-787.8"/>
</g>
<!-- 1&#45;&gt;10 -->
<g id="edge9" class="edge">
<title>1-&gt;10</title>
<path fill="none" stroke="black" d="M214.23,-862.4C214.23,-862.4 294.1,-862.4 294.1,-862.4"/>
<polygon fill="black" stroke="black" points="294.1,-864.5 300.1,-862.4 294.1,-860.3 294.1,-864.5"/>
</g>
<!-- 8 -->
<g id="node9" class="node">
<title>8</title>
<text text-anchor="start" x="330.18" y="-529.6" font-family="Times New Roman" font-style="italic" font-size="12.00">8</text>
<text text-anchor="start" x="307.52" y="-506.2" font-family="Times New Roman" font-size="12.00">T → T * .F</text>
<polygon fill="#e0e0e0" stroke="none" points="303.52,-445.4 303.52,-498.6 362.85,-498.6 362.85,-445.4 303.52,-445.4"/>
<polyline fill="none" stroke="black" points="362.85,-498.6 303.52,-498.6"/>
<text text-anchor="start" x="308.52" y="-482.8" font-family="Times New Roman" font-size="12.00">F → .(E)</text>
<text text-anchor="start" x="310.84" y="-468.4" font-family="Times New Roman" font-size="12.00">F → .-F</text>
<text text-anchor="start" x="309.85" y="-454" font-family="Times New Roman" font-size="12.00">F → .ID</text>
<polygon fill="none" stroke="black" points="302.52,-444.4 302.52,-544.4 363.85,-544.4 363.85,-444.4 302.52,-444.4"/>
</g>
<!-- 2&#45;&gt;8 -->
<g id="edge10" class="edge">
<title>2-&gt;8</title>
<path fill="none" stroke="black" d="M213.64,-323.3C246.37,-323.3 293.7,-323.3 293.7,-323.3 293.7,-323.3 293.7,-458.9 293.7,-458.9 293.7,-458.9 295.34,-458.9 295.34,-458.9"/>
<polygon fill="black" stroke="black" points="295.34,-461 301.34,-458.9 295.34,-456.8 295.34,-461"/>
</g>
<!-- 9 -->
<g id="node10" class="node">
<title>9</title>
<text text-anchor="start" x="330.18" y="-379.6" font-family="Times New Roman" font-style="italic" font-size="12.00">9</text>
<text text-anchor="start" x="308.85" y="-356.2" font-family="Times New Roman" font-size="12.00">T → T / .F</text>
<polygon fill="#e0e0e0" stroke="none" points="304.85,-295.4 304.85,-348.6 361.52,-348.6 361.52,-295.4 304.85,-295.4"/>
<polyline fill="none" stroke="black" points="361.52,-348.6 304.85,-348.6"/>
<text text-anchor="start" x="309.85" y="-332.8" font-family="Times New Roman" font-size="12.00">F → .(E)</text>
<text text-anchor="start" x="312.17" y="-318.4" font-family="Times New Roman" font-size="12.00">F → .-F</text>
<text text-anchor="start" x="311.18" y="-304" font-family="Times New Roman" font-size="12.00">F → .ID</text>
<polygon fill="none" stroke="black" points="303.85,-294.4 303.85,-394.4 362.52,-394.4 362.52,-294.4 303.85,-294.4"/>
</g>
<!-- 2&#45;&gt;9 -->
<g id="edge11" class="edge">
<title>2-&gt;9</title>
<path fill="none" stroke="black" d="M213.5,-308.85C213.5,-308.85 296.37,-308.85 296.37,-308.85"/>
<polygon fill="black" stroke="black" points="296.37,-310.95 302.37,-308.85 296.37,-306.75 296.37,-310.95"/>
</g>
<!-- 4&#45;&gt;2 -->
<g id="edge13" class="edge">
<title>4-&gt;2</title>
<path fill="none" stroke="black" d="M215.39,-573.71C237.34,-573.71 262.42,-573.71 262.42,-573.71 262.42,-573.71 262.42,-337.75 262.42,-337.75 262.42,-337.75 221.08,-337.75 221.08,-337.75"/>
<polygon fill="black" stroke="black" points="221.08,-335.65 215.08,-337.75 221.08,-339.85 221.08,-335.65"/>
</g>
<!-- 4&#45;&gt;4 -->
<g id="edge15" class="edge">
<title>4-&gt;4</title>
<path fill="none" stroke="black" d="M150.83,-632.33C136.18,-632.33 122.09,-632.33 122.09,-632.33 122.09,-632.33 122.09,-561.6 122.09,-561.6 122.09,-561.6 246.79,-561.6 246.79,-561.6 246.79,-561.6 246.79,-587.77 246.79,-587.77 246.79,-587.77 222.85,-587.77 222.85,-587.77"/>
<polygon fill="black" stroke="black" points="222.85,-585.67 216.85,-587.77 222.85,-589.87 222.85,-585.67"/>
</g>
<!-- 4&#45;&gt;6 -->
<g id="edge17" class="edge">
<title>4-&gt;6</title>
<path fill="none" stroke="black" d="M169.64,-570.24C169.64,-570.24 169.64,-509.77 169.64,-509.77"/>
<polygon fill="black" stroke="black" points="171.74,-509.77 169.64,-503.77 167.54,-509.77 171.74,-509.77"/>
</g>
<!-- 13 -->
<g id="node11" class="node">
<title>13</title>
<text text-anchor="start" x="327.18" y="-1041.4" font-family="Times New Roman" font-style="italic" font-size="12.00">13</text>
<text text-anchor="start" x="313.18" y="-1018" font-family="Times New Roman" font-size="12.00">F → (E.)</text>
<text text-anchor="start" x="306.8" y="-1003.6" font-family="Times New Roman" font-size="12.00">E → E. + T</text>
<text text-anchor="start" x="308.19" y="-989.2" font-family="Times New Roman" font-size="12.00">E → E. - T</text>
<polygon fill="none" stroke="black" points="301.8,-980.6 301.8,-1056.2 364.56,-1056.2 364.56,-980.6 301.8,-980.6"/>
</g>
<!-- 4&#45;&gt;13 -->
<g id="edge12" class="edge">
<title>4-&gt;13</title>
<path fill="none" stroke="black" d="M215.2,-743.53C219.98,-743.53 223.33,-743.53 223.33,-743.53 223.33,-743.53 223.33,-1018.4 223.33,-1018.4 223.33,-1018.4 294.48,-1018.4 294.48,-1018.4"/>
<polygon fill="black" stroke="black" points="294.48,-1020.5 300.48,-1018.4 294.48,-1016.3 294.48,-1020.5"/>
</g>
<!-- 4&#45;&gt;5 -->
<g id="edge16" class="edge">
<title>4-&gt;5</title>
<path fill="none" stroke="black" d="M215.27,-580.74C242.81,-580.74 278.06,-580.74 278.06,-580.74 278.06,-580.74 278.06,-233.1 278.06,-233.1 278.06,-233.1 298.75,-233.1 298.75,-233.1"/>
<polygon fill="black" stroke="black" points="298.75,-235.2 304.75,-233.1 298.75,-231 298.75,-235.2"/>
</g>
<!-- 4&#45;&gt;3 -->
<g id="edge14" class="edge">
<title>4-&gt;3</title>
<path fill="none" stroke="black" d="M215.08,-577.23C239.94,-577.23 270.24,-577.23 270.24,-577.23 270.24,-577.23 270.24,-31.2 270.24,-31.2 270.24,-31.2 298.98,-31.2 298.98,-31.2"/>
<polygon fill="black" stroke="black" points="298.98,-33.3 304.98,-31.2 298.98,-29.1 298.98,-33.3"/>
</g>
<!-- 6&#45;&gt;4 -->
<g id="edge20" class="edge">
<title>6-&gt;4</title>
<path fill="none" stroke="black" d="M183.14,-502.14C183.14,-502.14 183.14,-563.04 183.14,-563.04"/>
<polygon fill="black" stroke="black" points="181.04,-563.04 183.14,-569.04 185.24,-563.04 181.04,-563.04"/>
</g>
<!-- 6&#45;&gt;6 -->
<g id="edge19" class="edge">
<title>6-&gt;6</title>
<path fill="none" stroke="black" d="M156.22,-427.13C129.79,-427.13 93.42,-427.13 93.42,-427.13 93.42,-427.13 93.42,-398.4 93.42,-398.4 93.42,-398.4 231.15,-398.4 231.15,-398.4 231.15,-398.4 231.15,-412.9 231.15,-412.9 231.15,-412.9 217.47,-412.9 217.47,-412.9"/>
<polygon fill="black" stroke="black" points="217.47,-410.8 211.47,-412.9 217.47,-415 217.47,-410.8"/>
</g>
<!-- 6&#45;&gt;5 -->
<g id="edge21" class="edge">
<title>6-&gt;5</title>
<path fill="none" stroke="black" d="M210.07,-423.4C224.35,-423.4 238.97,-423.4 238.97,-423.4 238.97,-423.4 238.97,-221.4 238.97,-221.4 238.97,-221.4 298.67,-221.4 298.67,-221.4"/>
<polygon fill="black" stroke="black" points="298.67,-223.5 304.67,-221.4 298.67,-219.3 298.67,-223.5"/>
</g>
<!-- 12 -->
<g id="node19" class="node">
<title>12</title>
<text text-anchor="start" x="476.23" y="-131" font-family="Times New Roman" font-style="italic" font-size="12.00">12</text>
<text text-anchor="start" x="464.56" y="-107.6" font-family="Times New Roman" font-size="12.00">F → -F.</text>
<polygon fill="none" stroke="black" points="459.56,-99 459.56,-145.8 504.9,-145.8 504.9,-99 459.56,-99"/>
</g>
<!-- 6&#45;&gt;12 -->
<g id="edge18" class="edge">
<title>6-&gt;12</title>
<path fill="none" stroke="black" d="M209.89,-433.9C262.13,-433.9 372.67,-433.9 372.67,-433.9 372.67,-433.9 372.67,-122.4 372.67,-122.4 372.67,-122.4 447.91,-122.4 447.91,-122.4"/>
<polygon fill="black" stroke="black" points="447.91,-124.5 453.91,-122.4 447.91,-120.3 447.91,-124.5"/>
</g>
<!-- 7&#45;&gt;4 -->
<g id="edge23" class="edge">
<title>7-&gt;4</title>
<path fill="none" stroke="black" d="M301.73,-666.4C301.73,-666.4 222.84,-666.4 222.84,-666.4"/>
<polygon fill="black" stroke="black" points="222.84,-664.3 216.84,-666.4 222.84,-668.5 222.84,-664.3"/>
</g>
<!-- 7&#45;&gt;6 -->
<g id="edge25" class="edge">
<title>7-&gt;6</title>
<path fill="none" stroke="black" d="M322.96,-594.9C322.96,-572.26 322.96,-553 322.96,-553 322.96,-553 196.64,-553 196.64,-553 196.64,-553 196.64,-509.62 196.64,-509.62"/>
<polygon fill="black" stroke="black" points="198.74,-509.62 196.64,-503.62 194.54,-509.62 198.74,-509.62"/>
</g>
<!-- 7&#45;&gt;5 -->
<g id="edge24" class="edge">
<title>7-&gt;5</title>
<path fill="none" stroke="black" d="M364.37,-606.07C389.12,-606.07 419.58,-606.07 419.58,-606.07 419.58,-606.07 419.58,-221.4 419.58,-221.4 419.58,-221.4 367.56,-221.4 367.56,-221.4"/>
<polygon fill="black" stroke="black" points="367.56,-219.3 361.56,-221.4 367.56,-223.5 367.56,-219.3"/>
</g>
<!-- 7&#45;&gt;3 -->
<g id="edge22" class="edge">
<title>7-&gt;3</title>
<path fill="none" stroke="black" d="M364.82,-617.33C392.19,-617.33 427.4,-617.33 427.4,-617.33 427.4,-617.33 427.4,-31.2 427.4,-31.2 427.4,-31.2 367.69,-31.2 367.69,-31.2"/>
<polygon fill="black" stroke="black" points="367.69,-29.1 361.69,-31.2 367.69,-33.3 367.69,-29.1"/>
</g>
<!-- 11 -->
<g id="node14" class="node">
<title>11</title>
<text text-anchor="start" x="476.23" y="-689.4" font-family="Times New Roman" font-style="italic" font-size="12.00">11</text>
<text text-anchor="start" x="455.85" y="-666" font-family="Times New Roman" font-size="12.00">E → E + T.</text>
<text text-anchor="start" x="456.56" y="-651.6" font-family="Times New Roman" font-size="12.00">T → T. * F</text>
<text text-anchor="start" x="457.89" y="-637.2" font-family="Times New Roman" font-size="12.00">T → T. / F</text>
<polygon fill="none" stroke="black" points="450.85,-628.6 450.85,-704.2 513.61,-704.2 513.61,-628.6 450.85,-628.6"/>
</g>
<!-- 7&#45;&gt;11 -->
<g id="edge26" class="edge">
<title>7-&gt;11</title>
<path fill="none" stroke="black" d="M364.79,-679C364.79,-679 443.41,-679 443.41,-679"/>
<polygon fill="black" stroke="black" points="443.41,-681.1 449.41,-679 443.41,-676.9 443.41,-681.1"/>
</g>
<!-- 10&#45;&gt;4 -->
<g id="edge37" class="edge">
<title>10-&gt;4</title>
<path fill="none" stroke="black" d="M322.63,-787.97C322.63,-766.75 322.63,-749.07 322.63,-749.07 322.63,-749.07 223,-749.07 223,-749.07"/>
<polygon fill="black" stroke="black" points="223,-746.97 217,-749.07 223,-751.17 223,-746.97"/>
</g>
<!-- 10&#45;&gt;6 -->
<g id="edge39" class="edge">
<title>10-&gt;6</title>
<path fill="none" stroke="black" d="M301.68,-806.2C279.82,-806.2 254.61,-806.2 254.61,-806.2 254.61,-806.2 254.61,-487.9 254.61,-487.9 254.61,-487.9 217.26,-487.9 217.26,-487.9"/>
<polygon fill="black" stroke="black" points="217.26,-485.8 211.26,-487.9 217.26,-490 217.26,-485.8"/>
</g>
<!-- 10&#45;&gt;5 -->
<g id="edge38" class="edge">
<title>10-&gt;5</title>
<path fill="none" stroke="black" d="M364.63,-798.4C394.61,-798.4 435.21,-798.4 435.21,-798.4 435.21,-798.4 435.21,-209.7 435.21,-209.7 435.21,-209.7 367.5,-209.7 367.5,-209.7"/>
<polygon fill="black" stroke="black" points="367.5,-207.6 361.5,-209.7 367.5,-211.8 367.5,-207.6"/>
</g>
<!-- 10&#45;&gt;3 -->
<g id="edge36" class="edge">
<title>10-&gt;3</title>
<path fill="none" stroke="black" d="M364.66,-809C397.12,-809 443.03,-809 443.03,-809 443.03,-809 443.03,-15.6 443.03,-15.6 443.03,-15.6 367.57,-15.6 367.57,-15.6"/>
<polygon fill="black" stroke="black" points="367.57,-13.5 361.57,-15.6 367.57,-17.7 367.57,-13.5"/>
</g>
<!-- 17 -->
<g id="node15" class="node">
<title>17</title>
<text text-anchor="start" x="476.23" y="-815.4" font-family="Times New Roman" font-style="italic" font-size="12.00">17</text>
<text text-anchor="start" x="457.24" y="-792" font-family="Times New Roman" font-size="12.00">E → E - T.</text>
<text text-anchor="start" x="456.56" y="-777.6" font-family="Times New Roman" font-size="12.00">T → T. * F</text>
<text text-anchor="start" x="457.89" y="-763.2" font-family="Times New Roman" font-size="12.00">T → T. / F</text>
<polygon fill="none" stroke="black" points="451.56,-754.6 451.56,-830.2 512.9,-830.2 512.9,-754.6 451.56,-754.6"/>
</g>
<!-- 10&#45;&gt;17 -->
<g id="edge35" class="edge">
<title>10-&gt;17</title>
<path fill="none" stroke="black" d="M364.79,-819.6C364.79,-819.6 444.17,-819.6 444.17,-819.6"/>
<polygon fill="black" stroke="black" points="444.17,-821.7 450.17,-819.6 444.17,-817.5 444.17,-821.7"/>
</g>
<!-- 8&#45;&gt;4 -->
<g id="edge28" class="edge">
<title>8-&gt;4</title>
<path fill="none" stroke="black" d="M343.4,-544.32C343.4,-565 343.4,-584.26 343.4,-584.26 343.4,-584.26 222.7,-584.26 222.7,-584.26"/>
<polygon fill="black" stroke="black" points="222.7,-582.16 216.7,-584.26 222.7,-586.36 222.7,-582.16"/>
</g>
<!-- 8&#45;&gt;6 -->
<g id="edge30" class="edge">
<title>8-&gt;6</title>
<path fill="none" stroke="black" d="M302.82,-473.4C302.82,-473.4 217.45,-473.4 217.45,-473.4"/>
<polygon fill="black" stroke="black" points="217.45,-471.3 211.45,-473.4 217.45,-475.5 217.45,-471.3"/>
</g>
<!-- 8&#45;&gt;5 -->
<g id="edge29" class="edge">
<title>8-&gt;5</title>
<path fill="none" stroke="black" d="M363.79,-457.7C385.85,-457.7 411.76,-457.7 411.76,-457.7 411.76,-457.7 411.76,-233.1 411.76,-233.1 411.76,-233.1 367.3,-233.1 367.3,-233.1"/>
<polygon fill="black" stroke="black" points="367.3,-231 361.3,-233.1 367.3,-235.2 367.3,-231"/>
</g>
<!-- 15 -->
<g id="node16" class="node">
<title>15</title>
<text text-anchor="start" x="476.23" y="-503" font-family="Times New Roman" font-style="italic" font-size="12.00">15</text>
<text text-anchor="start" x="456.56" y="-479.6" font-family="Times New Roman" font-size="12.00">T → T * F.</text>
<polygon fill="none" stroke="black" points="451.56,-471 451.56,-517.8 512.9,-517.8 512.9,-471 451.56,-471"/>
</g>
<!-- 8&#45;&gt;15 -->
<g id="edge27" class="edge">
<title>8-&gt;15</title>
<path fill="none" stroke="black" d="M363.7,-494.4C363.7,-494.4 444.23,-494.4 444.23,-494.4"/>
<polygon fill="black" stroke="black" points="444.23,-496.5 450.23,-494.4 444.23,-492.3 444.23,-496.5"/>
</g>
<!-- 9&#45;&gt;4 -->
<g id="edge32" class="edge">
<title>9-&gt;4</title>
<path fill="none" stroke="black" d="M304.03,-380.33C294.3,-380.33 285.88,-380.33 285.88,-380.33 285.88,-380.33 285.88,-591.29 285.88,-591.29 285.88,-591.29 222.88,-591.29 222.88,-591.29"/>
<polygon fill="black" stroke="black" points="222.88,-589.19 216.88,-591.29 222.88,-593.39 222.88,-589.19"/>
</g>
<!-- 9&#45;&gt;6 -->
<g id="edge34" class="edge">
<title>9-&gt;6</title>
<path fill="none" stroke="black" d="M303.9,-366.27C260.23,-366.27 183.14,-366.27 183.14,-366.27 183.14,-366.27 183.14,-395.28 183.14,-395.28"/>
<polygon fill="black" stroke="black" points="181.04,-395.28 183.14,-401.28 185.24,-395.28 181.04,-395.28"/>
</g>
<!-- 9&#45;&gt;5 -->
<g id="edge33" class="edge">
<title>9-&gt;5</title>
<path fill="none" stroke="black" d="M333.18,-294.73C333.18,-294.73 333.18,-252.12 333.18,-252.12"/>
<polygon fill="black" stroke="black" points="335.28,-252.12 333.18,-246.12 331.08,-252.12 335.28,-252.12"/>
</g>
<!-- 16 -->
<g id="node17" class="node">
<title>16</title>
<text text-anchor="start" x="476.23" y="-353" font-family="Times New Roman" font-style="italic" font-size="12.00">16</text>
<text text-anchor="start" x="457.89" y="-329.6" font-family="Times New Roman" font-size="12.00">T → T / F.</text>
<polygon fill="none" stroke="black" points="452.89,-321 452.89,-367.8 511.56,-367.8 511.56,-321 452.89,-321"/>
</g>
<!-- 9&#45;&gt;16 -->
<g id="edge31" class="edge">
<title>9-&gt;16</title>
<path fill="none" stroke="black" d="M362.27,-344.4C362.27,-344.4 445.44,-344.4 445.44,-344.4"/>
<polygon fill="black" stroke="black" points="445.44,-346.5 451.44,-344.4 445.44,-342.3 445.44,-346.5"/>
</g>
<!-- 13&#45;&gt;7 -->
<g id="edge43" class="edge">
<title>13-&gt;7</title>
<path fill="none" stroke="black" d="M364.47,-987.8C373.27,-987.8 380.49,-987.8 380.49,-987.8 380.49,-987.8 380.49,-721.1 380.49,-721.1 380.49,-721.1 372.25,-721.1 372.25,-721.1"/>
<polygon fill="black" stroke="black" points="372.25,-719 366.25,-721.1 372.25,-723.2 372.25,-719"/>
</g>
<!-- 13&#45;&gt;10 -->
<g id="edge44" class="edge">
<title>13-&gt;10</title>
<path fill="none" stroke="black" d="M333.18,-980.72C333.18,-980.72 333.18,-938.31 333.18,-938.31"/>
<polygon fill="black" stroke="black" points="335.28,-938.31 333.18,-932.31 331.08,-938.31 335.28,-938.31"/>
</g>
<!-- 14 -->
<g id="node18" class="node">
<title>14</title>
<text text-anchor="start" x="476.23" y="-1027" font-family="Times New Roman" font-style="italic" font-size="12.00">14</text>
<text text-anchor="start" x="462.23" y="-1003.6" font-family="Times New Roman" font-size="12.00">F → (E).</text>
<polygon fill="none" stroke="black" points="457.23,-995 457.23,-1041.8 507.23,-1041.8 507.23,-995 457.23,-995"/>
</g>
<!-- 13&#45;&gt;14 -->
<g id="edge42" class="edge">
<title>13-&gt;14</title>
<path fill="none" stroke="black" d="M364.43,-1018.4C364.43,-1018.4 448,-1018.4 448,-1018.4"/>
<polygon fill="black" stroke="black" points="448,-1020.5 454,-1018.4 448,-1016.3 448,-1020.5"/>
</g>
<!-- 11&#45;&gt;8 -->
<g id="edge40" class="edge">
<title>11-&gt;8</title>
<path fill="none" stroke="black" d="M482.23,-628.95C482.23,-587.56 482.23,-526.67 482.23,-526.67 482.23,-526.67 371.22,-526.67 371.22,-526.67"/>
<polygon fill="black" stroke="black" points="371.22,-524.57 365.22,-526.67 371.22,-528.77 371.22,-524.57"/>
</g>
<!-- 11&#45;&gt;9 -->
<g id="edge41" class="edge">
<title>11-&gt;9</title>
<path fill="none" stroke="black" d="M451.29,-653.8C429.4,-653.8 403.94,-653.8 403.94,-653.8 403.94,-653.8 403.94,-376.67 403.94,-376.67 403.94,-376.67 369.88,-376.67 369.88,-376.67"/>
<polygon fill="black" stroke="black" points="369.88,-374.57 363.88,-376.67 369.88,-378.77 369.88,-374.57"/>
</g>
<!-- 17&#45;&gt;8 -->
<g id="edge45" class="edge">
<title>17-&gt;8</title>
<path fill="none" stroke="black" d="M451.73,-772.2C424.31,-772.2 388.3,-772.2 388.3,-772.2 388.3,-772.2 388.3,-535.53 388.3,-535.53 388.3,-535.53 371.16,-535.53 371.16,-535.53"/>
<polygon fill="black" stroke="black" points="371.16,-533.43 365.16,-535.53 371.16,-537.63 371.16,-533.43"/>
</g>
<!-- 17&#45;&gt;9 -->
<g id="edge46" class="edge">
<title>17-&gt;9</title>
<path fill="none" stroke="black" d="M451.63,-764.4C426.88,-764.4 396.12,-764.4 396.12,-764.4 396.12,-764.4 396.12,-385.53 396.12,-385.53 396.12,-385.53 369.95,-385.53 369.95,-385.53"/>
<polygon fill="black" stroke="black" points="369.95,-383.43 363.95,-385.53 369.95,-387.63 369.95,-383.43"/>
</g>
</g>
</svg>